<svg width="532" height="154" viewBox="0 0 532 154" fill="none" xmlns="http://www.w3.org/2000/svg">
<path d="M67.9351 104.602H37.168L31.7949 122H7.80811L41.9653 28.8672H63.0737L97.4868 122H73.3721L67.9351 104.602ZM42.541 87.2671H62.562L52.5195 54.9648L42.541 87.2671ZM147.188 115.22C142.625 120.593 136.143 123.279 127.742 123.279C120.237 123.279 114.544 121.083 110.664 116.691C106.826 112.299 104.907 105.945 104.907 97.6294V52.79H120.45V97.4375C120.45 106.222 124.096 110.614 131.388 110.614C138.936 110.614 144.032 107.906 146.676 102.491V52.79H162.219V122H147.571L147.188 115.22ZM197.528 35.9673V52.79H209.745V64.3037H197.528V102.938C197.528 105.582 198.04 107.501 199.063 108.695C200.129 109.847 202.005 110.422 204.692 110.422C206.483 110.422 208.295 110.209 210.129 109.783V121.808C206.59 122.789 203.178 123.279 199.895 123.279C187.954 123.279 181.984 116.691 181.984 103.514V64.3037H170.599V52.79H181.984V35.9673H197.528ZM216.845 86.7554C216.845 79.9751 218.188 73.8771 220.875 68.4614C223.562 63.0031 227.335 58.8241 232.197 55.9243C237.058 52.9819 242.644 51.5107 248.956 51.5107C258.294 51.5107 265.864 54.5171 271.663 60.5298C277.505 66.5425 280.661 74.5168 281.13 84.4526L281.194 88.0986C281.194 94.9215 279.872 101.02 277.228 106.393C274.627 111.766 270.874 115.923 265.97 118.866C261.109 121.808 255.48 123.279 249.083 123.279C239.318 123.279 231.493 120.038 225.608 113.557C219.766 107.032 216.845 98.3543 216.845 87.5229V86.7554ZM232.389 88.0986C232.389 95.2201 233.86 100.806 236.802 104.857C239.745 108.866 243.838 110.87 249.083 110.87C254.329 110.87 258.401 108.823 261.301 104.729C264.243 100.636 265.714 94.6444 265.714 86.7554C265.714 79.7619 264.201 74.2183 261.173 70.1245C258.188 66.0308 254.115 63.9839 248.956 63.9839C243.881 63.9839 239.851 66.0094 236.866 70.0605C233.881 74.069 232.389 80.0817 232.389 88.0986ZM333.133 103.194C333.133 100.423 331.982 98.3117 329.679 96.8618C327.419 95.4119 323.645 94.1326 318.357 93.0239C313.07 91.9152 308.656 90.508 305.117 88.8022C297.356 85.0496 293.475 79.6126 293.475 72.4912C293.475 66.5212 295.991 61.5319 301.023 57.5234C306.055 53.515 312.451 51.5107 320.212 51.5107C328.485 51.5107 335.159 53.5576 340.233 57.6514C345.351 61.7451 347.909 67.0542 347.909 73.5786H332.366C332.366 70.5936 331.257 68.1203 329.04 66.1587C326.822 64.1545 323.88 63.1523 320.212 63.1523C316.801 63.1523 314.008 63.9412 311.833 65.519C309.701 67.0968 308.635 69.2077 308.635 71.8516C308.635 74.2396 309.637 76.0946 311.641 77.4165C313.645 78.7384 317.696 80.0817 323.794 81.4463C329.892 82.7682 334.668 84.3674 338.123 86.2437C341.619 88.0773 344.199 90.2948 345.862 92.896C347.568 95.4972 348.421 98.6528 348.421 102.363C348.421 108.589 345.841 113.642 340.681 117.522C335.521 121.36 328.762 123.279 320.404 123.279C314.733 123.279 309.68 122.256 305.245 120.209C300.81 118.162 297.356 115.348 294.882 111.766C292.409 108.184 291.172 104.324 291.172 100.188H306.268C306.481 103.855 307.867 106.691 310.426 108.695C312.984 110.657 316.375 111.638 320.596 111.638C324.69 111.638 327.803 110.87 329.935 109.335C332.067 107.757 333.133 105.71 333.133 103.194ZM376.246 28.8672L410.595 111.062L445.072 28.8672H455.562V122H447.694V81.4463L448.334 39.8691L413.665 122H407.588L373.047 40.189L373.687 81.1904V122H365.819V28.8672H376.246ZM499.122 80.8706L517.8 52.79H526.883L503.408 86.7554L527.906 122H518.887L499.186 92.7041L479.485 122H470.466L494.9 86.7554L471.425 52.79H480.444L499.122 80.8706Z" fill="black"/>
<path d="M0.713849 122L34.3502 29.5H51.3283L23.6278 122H0.713849Z" stroke="black"/>
</svg>
